/* XPM */
static char *freemat[] = {
/* width height ncolors chars_per_pixel */
"48 48 197 2",
/* colors */
"   c #000000",
" . c #498AC5",
" X c #44CBE4",
" o c #B4F3F9",
" O c #16BDDB",
" + c #20415E",
" @ c #2173B8",
" # c #72CAE3",
" $ c #71E1EF",
" % c #C6F5FA",
" & c #A3A3A3",
" * c #4B6C88",
" = c #DDE8F3",
" - c #D4E9F4",
" ; c #78B0D5",
" : c #303132",
" > c #2B3E4E",
" , c #18B2D6",
" < c #959595",
" 1 c #50B0D5",
" 2 c #8FECF5",
" 3 c #F4FAFC",
" 4 c #189DCC",
" 5 c #C4E4F1",
" 6 c #0E4E87",
" 7 c #CADDED",
" 8 c #1B6FB8",
" 9 c #D4F5FA",
" 0 c #195E95",
" q c #1A8AC4",
" w c #9EC3E6",
" e c #24C1DE",
" r c #122435",
" t c #649DCE",
" y c #79EEF6",
" u c #38AED4",
" i c #127EBC",
" p c #2F6390",
" a c #1B75BB",
" s c #66ADD3",
" d c #1ECEE5",
" f c #717171",
" g c #3780BC",
" h c #B5E1EF",
" j c #ACE4F0",
" k c #C3D7E9",
" l c #818F9B",
" z c #A7DAEB",
" x c #B7D2E7",
" c c #2DB1D6",
" v c #CFE0EE",
" b c #45BFDD",
" n c #A5EDF6",
" m c #1974B2",
" M c #AFC3D5",
" N c #595959",
" B c #15578D",
" V c #222223",
" C c #B5D0E8",
" Z c #DFF5FA",
" A c #AFCAE2",
" S c #DCF1F7",
" D c #FCFCFC",
" F c #2ED8EA",
" G c #18A2CE",
" H c #445665",
" J c #6C767F",
" K c #22D3E8",
" L c #15B7D8",
" P c #66EDF6",
" I c #1A91C6",
" U c #49D7EA",
" Y c #6AA2D6",
" T c #29A2CE",
" R c #D2EAFA",
" E c #1483C0",
" W c #C9D2DA",
" Q c #1866A3",
" ! c #45A5CF",
" ~ c #4E7596",
" ^ c #1576B7",
" / c #7AA5CB",
" ( c #B5E4F1",
" ) c #0E3B61",
" _ c #DCDCDC",
" ` c #1A84BF",
" ' c #9C9D9D",
" ] c #404346",
" [ c #CECECE",
" { c #B2CBE4",
" } c #ACEBF5",
" | c #174E7A",
".  c #1470B9",
".. c #29C7E1",
".X c #CCF6FA",
".o c #90F0F7",
".O c #1C84C4",
".+ c #6DA0CB",
".@ c #6D7C89",
".# c #BDD4E8",
".$ c #D4E2EE",
".% c #0B1C2C",
".& c #3EA3CE",
".* c #94B9DA",
".= c #26C7E1",
".- c #93D2E6",
".; c #57C8E3",
".: c #94E9F4",
".> c #32B7D9",
"., c #55DFEE",
".< c #AEAEAE",
".1 c #1B7BBC",
".2 c #0F416B",
".3 c #C4D9EB",
".4 c #1288C0",
".5 c #ECF8FB",
".6 c #38CDE5",
".7 c #224B70",
".8 c #DCEBF5",
".9 c #334759",
".0 c #2B79BE",
".q c #215786",
".w c #81CDE4",
".e c #179CCB",
".r c #868686",
".t c #CEDBE7",
".y c #39DDEC",
".u c #7AD8EA",
".i c #0F5695",
".p c #C5EDF5",
".a c #738A9E",
".s c #EEF5F9",
".d c #EDF3F8",
".f c #E5F6FA",
".g c #E4F4F9",
".h c #A9CBEA",
".j c #2983C2",
".k c #196FAF",
".l c #3E93C6",
".z c #CBECF4",
".x c #9CBFDD",
".c c #31D1E7",
".v c #909BA3",
".b c #3C87C4",
".n c #80C4DF",
".m c #19619B",
".M c #E8EFF6",
".N c #337BBB",
".B c #1B7EC1",
".V c #2D343B",
".C c #1CBCDC",
".Z c #1263AB",
".A c #3C76A6",
".S c #4A98CE",
".D c #E4EDF5",
".F c #A4C6E1",
".G c #1CC4DF",
".H c #F2F8FC",
".J c #BAD2E6",
".K c #0D3150",
".L c #CEE3F3",
".P c #636669",
".I c #5694C9",
".U c #186DB7",
".Y c #C1C9CF",
".T c #151719",
".R c #BFD8EE",
".E c #DAEAF8",
".W c #636D76",
".Q c #668EB1",
".! c #85B2D6",
".~ c #566B7D",
".^ c #82AED3",
"./ c #2397C8",
".( c #B0EEF6",
".) c #2FCCE4",
"._ c #1996C8",
".` c #18AFD4",
".' c #8EB5D8",
".] c #74818D",
".[ c #34DCEC",
".{ c #497EA8",
".} c #55E7F2",
".| c #1869A6",
"X  c #D1E6F2",
"X. c #92C3DF",
"XX c #4D87B9",
"Xo c #82B8D9",
"XO c #5DA5CF",
"X+ c #82B0D9",
"X@ c #6ADAEC",
"X# c #75A9D6",
"X$ c #1978B7",
"X% c #252D35",
"X& c #1296C7",
"X* c #9EEBF4",
"X= c None",
/* pixels */
"                                                                                                ",
"                                                                                                ",
"                             7.E.E = v k.J { { { { {.J k k.#.#.R.h.t                            ",
"                             k.a *.Q.h 3 D.s.8X  -.8X .x.I g p.7.7 J.r                          ",
"                               : [.<.@.Q.8.8.8.f S.-.l.  6.% ].r.r.r.r                          ",
"                                      .Y.F.5.5 %X@.` E Q.T.P.r                                  ",
"                                        .x.g.fX*.c.`.O.K N.r                                    ",
"                                         {.8.f n.) G.1.%.r                                      ",
"                                     :   7 3.s n.) G mX%.r                                      ",
"                       :.D.3.#.#.J { { 7.D.H.fX*.6 4 ^.A.F C.J { A A k.r                        ",
"                   :.#.$.H.s.3.' t . .XX /.8.f.:.) 4X$.k.N .X# A 7.D.8 {.^.r.r                  ",
"               : k.D D D.# t.0.k 6.K r : H R.s.:.= 4 m.% ] H.7 0 gX+ v D.D.! ..r                ",
"            .8.$ D D.8 s.1.  6.% :.r.r.r W R.f n.= 4 mX%.r   : :.@.m.b.F.8X Xo g.+.r            ",
"           v.s D D 5 ! i a ).T f.r      .8.8.f.(.= 4 m.V.r       : : ~.jX. 5 z s.jXX.r          ",
"         v.s D 3 ( u.4.1.K V.r          .8.g.s.(.. 4 m.V.r            .Q.S z h.w.&.B.r.r        ",
"       :.8 D 3.p bX&.O.2 V.r            .8.g.s.(.. 4 m.V.r             : tX..z z.;./.B.r.r      ",
"      .# D 3 ZX@.` q 0.T.r              .8.g.s.(.. 4 m.V.r               :X#.g.z.u.> I.1.r      ",
"    .8.H D.fX* e.e.B r N.r              .8.g.s.(.. 4 m.V.r                .xX .5 } U.`.O 0.r    ",
"    .# D.5 9., L I.m.T.r                .8.g.s.(.. 4 m.V.r                 : { 3 9 $ e I a.W    ",
"   :X  D.f o F.` q.2 N.r                .8.g.s.(.. 4 m.V.r                  .F.f.f.:.c G.O.7.r  ",
"   7 3 3 Z.o K G.B r.r                  .8.g.s.(.. 4 m.V.r                  .J -.f o U , q B <.r",
"  .3 D.5 Z y d GX$ r.r                  .8.g.s.(.. 4 m.V.r                   7X  S %.}.C I Q.P.r",
"   7 D.f 9 P d 4 mX%.r                  .8.g.s.(.. 4 m.V.r                  X  =.f.X.}.G._.k ].r",
"   7.H.f.X P d 4 m.V.r                  .8.g.s.(.. 4 m.V.r                  X .g.s.X P.G._ m >.r",
"  .3.8 Z % P d GX$ >.r                  .8.g.s.(.. 4 m.V.r                   v 3.s.X.}.G._ m.V.r",
"  .#.L.8.X P K G.B >.r                  .8.g.s.(.. 4 m.V.r                  .3 D.s %.} O I.|.V.r",
"   k.$.g 9 y F.`.O +.r                  .8.g.s.(.. 4 m.V.r                  .J D.s o.[ , q B ].r",
"   : x 3 Z 2.y , q |.r                  .8.g.s.(.. 4 m.V.r                   k D.f 2 d G.O ) N.r",
"    .x.s.fX*.,.C I Q.r                  .8.g.s.(.. 4 m.V.r                 :.M D Z., O I a.% <.r",
"    X .* - jX@...e.B H.r                .8.g.s.(.. 4 m.V.r                .J D 3 }.= G.O B V.r  ",
"      .! ;.-.u X.` q 0.r                .8.g.s.(.. 4 m.V.r               :.D D S.;.` q a.% f    ",
"       : ..l 1 b c I.B *.r              .8.g.s.(.. 4 m.V.r              .# D.s # G q.B.K :.r    ",
"         : g.O./ T./ ` a.r              .8.d.s.(.. 4 m.V.r            .# D 3.n._ q.B.2.T.r      ",
"           :.{.B ` q `.1 m.+.r          .8.s.5.(.. 4 m.V.r         :.3 D.D s `.B a.K.T.r        ",
"             :.a.k.B.1 m @.N ..*.r.r    X .H.5.(.) 4 m.V.r   : : k.H D A.b ^.1 0.% :.r          ",
"                 : * Q a 8 m g t.* { { { 7 3.s.(.6 4 ^ * M.3.$.D.$.* . a.U B.K V.r.r            ",
"                   : :.~.q Q.k.U.0.IX# w.L.g.fX*.6 4X$.b Y Y t.b @.Z.i.2 rX%.r.r                ",
"                       : : :.W H + + ) ) p -.f.:.) GX$.2 ) ).K.KX%.V ] f.r.r                    ",
"                       :       : : : : :.v Z.f n.) G m r <.r.r.r.r.r.r                          ",
"                                 : : : :.J D.f n.c G.B >.r                                      ",
"                                         7 D.f 2.c.`.O.7.r                                      ",
"                                      .# D.s.-.6.C G ` 8.]                                      ",
"                                 D.D v 3.#XO._ 4 4 I.1 8.k /.r.r.r                              ",
"                             A.h.F wX+ . @. .1.B.B.1 a 8 8 8.N t Y.r                            ",
"                            .$ l H H.9 > > > > > > > > > > > >.9.9.P.r                          ",
"                               _.< & ' < < < < < < < < < < < < ' & &.r                          ",
"                                                                                                ",
"                                                                                                "
};
